<?xml version="1.0" encoding="UTF-8"?>
<svg id="Camada_1" data-name="Camada 1" xmlns="http://www.w3.org/2000/svg" viewBox="0 0 310.67 63.64">
  <defs>
    <style>
      .cls-1 {
        fill: #06a248;
      }

      .cls-2 {
        fill: #f5faf6;
      }
    </style>
  </defs>
  <g>
    <path class="cls-2" d="M82.7,19.05h-6.96l-9.84,26.23h6.31l1.63-4.6h10.68l1.6,4.6h6.46l-9.88-26.23ZM75.74,35.24l3.42-9.69,3.42,9.69h-6.84Z"/>
    <path class="cls-2" d="M115.46,39.92c-.98,0-1.55-.57-1.55-1.56v-20.45h-5.55v9.92c-1.48-1.52-3.5-2.4-5.85-2.4-5.32,0-9.35,4.37-9.35,10.15s4.03,10.15,9.35,10.15c2.69,0,4.94-1.17,6.5-3.07.88,1.74,2.63,2.62,5.29,2.62h1.55v-5.36h-.38ZM103.6,40.38c-2.7,0-4.71-2.06-4.71-4.79s2.01-4.79,4.71-4.79,4.75,2.05,4.75,4.79-2.02,4.79-4.75,4.79Z"/>
    <path class="cls-2" d="M138.46,39.92c-.99,0-1.56-.57-1.56-1.56v-12.47h-5.55v10.79c0,2.2-1.52,3.69-3.77,3.69-2.09,0-3.45-1.45-3.45-3.61v-10.87h-5.55v12.54c0,4.41,2.85,7.29,7.14,7.29,2.62,0,4.75-1.06,6.27-3.07.84,1.74,2.62,2.62,5.28,2.62h1.56v-5.36h-.38Z"/>
    <path class="cls-2" d="M153.13,25.43c-2.36,0-4.37.88-5.85,2.4v-9.92h-5.55v27.37h5.55v-1.94c1.48,1.52,3.49,2.39,5.85,2.39,5.36,0,9.35-4.37,9.35-10.15s-3.99-10.15-9.35-10.15ZM152.03,40.38c-2.74,0-4.75-2.06-4.75-4.79s2.01-4.79,4.75-4.79,4.75,2.05,4.75,4.79-2.02,4.79-4.75,4.79Z"/>
    <path class="cls-2" d="M175.14,25.43c-5.97,0-10.45,4.37-10.45,10.15s4.48,10.15,10.45,10.15,10.45-4.37,10.45-10.15-4.49-10.15-10.45-10.15ZM175.14,40.38c-2.74,0-4.75-2.06-4.75-4.79s2.01-4.79,4.75-4.79,4.75,2.05,4.75,4.79-2.02,4.79-4.75,4.79Z"/>
    <path class="cls-2" d="M193.46,31.25c0-.88.95-1.45,2.21-1.45,1.4,0,2.43.69,2.43,1.71h5.51c0-3.49-3.27-6.08-7.91-6.08-4.25,0-7.71,2.17-7.71,6.27,0,6.99,10.41,5.25,10.41,8.1,0,.87-1.02,1.52-2.43,1.52-1.6,0-2.74-.8-2.74-1.94h-5.55c0,3.61,3.34,6.34,8.28,6.34s7.94-2.62,7.94-6.5c0-6.92-10.45-5.25-10.45-7.98Z"/>
    <path class="cls-2" d="M236.11,39.73c-1.71,0-3.04-.65-4.03-2.05l-1.26-1.83c3.58-1.1,5.97-4.14,5.97-8.02,0-5.02-3.91-8.78-9.12-8.78h-11.82v26.23h5.89v-8.97h2.36l2.43,4.1c1.79,3.27,4.75,4.87,8.93,4.87h1.79v-5.55h-1.14ZM227.55,31.18h-5.82v-6.57h5.82c1.82,0,3.19,1.4,3.19,3.3s-1.37,3.27-3.19,3.27Z"/>
    <path class="cls-2" d="M259.75,35.7c0-5.93-4.52-10.26-10.45-10.26s-10.45,4.37-10.45,10.15,4.48,10.15,10.49,10.15c4.79,0,8.66-2.66,10.11-6.57h-5.93c-.8,1.06-2.24,1.82-4.03,1.82-2.32,0-4.1-1.4-4.71-3.61h14.82c.11-.49.15-1.14.15-1.67ZM244.81,33.69c.61-2.13,2.28-3.5,4.49-3.5s3.95,1.37,4.52,3.5h-9.01Z"/>
    <path class="cls-2" d="M284.19,39.92c-.99,0-1.56-.57-1.56-1.56v-12.47h-5.55v1.94c-1.49-1.52-3.5-2.4-5.86-2.4-5.32,0-9.35,4.37-9.35,10.15s4.02,10.15,9.35,10.15c2.7,0,4.94-1.17,6.5-3.07.88,1.74,2.62,2.62,5.28,2.62h1.56v-5.36h-.38ZM272.33,40.38c-2.7,0-4.72-2.06-4.72-4.79s2.02-4.79,4.72-4.79,4.75,2.05,4.75,4.79-2.02,4.79-4.75,4.79Z"/>
    <path class="cls-2" d="M295.21,39.92c-1.26,0-1.98-.68-1.98-1.9v-20.11h-5.55v21.33c0,3.99,2.28,6.04,6.73,6.04h1.98v-5.36h-1.18Z"/>
  </g>
  <path class="cls-1" d="M51.9,51.75h-30.48c-5.54,0-8.96-6.02-6.13-10.78l7.47-12.55,7.77-13.04c2.77-4.64,9.49-4.64,12.26,0l7.77,13.04,7.47,12.55c2.83,4.76-.59,10.78-6.13,10.78Z"/>
  <path class="cls-2" d="M34.85,47.63c-.07.27-.3.46-.57.46-.27.01-6.49.09-9.69-3.98-1.49-1.88-2.05-4.34-1.7-7.31.1-.81.27-1.66.51-2.55.06-.26.3-.45.58-.46,4.28-.09,7.4,1.09,9.3,3.5,3.2,4.06,1.64,10.1,1.57,10.34Z"/>
  <path class="cls-2" d="M48.99,43.82c-3.1,4.14-9.32,4.2-9.59,4.2s-.51-.18-.58-.44c-.08-.25-1.77-6.24,1.33-10.38,1.44-1.93,3.66-3.11,6.62-3.54.81-.11,1.67-.17,2.6-.17.27-.01.51.18.59.44,1.19,4.11.86,7.43-.97,9.89Z"/>
  <path class="cls-2" d="M42.28,28.66c0,2.4-1.07,4.68-3.18,6.79-.58.58-1.23,1.15-1.97,1.7-.22.17-.52.17-.74,0-3.42-2.57-5.15-5.43-5.15-8.49,0-5.18,4.94-8.96,5.15-9.12.22-.16.52-.16.74,0,.21.16,5.15,3.94,5.15,9.12Z"/>
</svg>